<?xml version="1.0" encoding="utf-8"?>
<svg id="master-artboard" viewBox="0 0 1400 980" version="1.1" xmlns="http://www.w3.org/2000/svg" x="0px" y="0px" style="enable-background:new 0 0 1400 980;" width="1400px" height="980px" xmlns:xlink="http://www.w3.org/1999/xlink"><defs><style id="ee-google-fonts">@import url(https://fonts.googleapis.com/css?family=Rubik:300,300italic,400,400italic,500,500italic,700,700italic,900,900italic);</style><style id="style-1">@import url(https://fonts.googleapis.com/css?family=Roboto:100,100italic,300,300italic,400,400italic,500,500italic,700,700italic,900,900italic);</style><path id="path0_fill" d="M 12.5 -3.15905e-08C 19.4034 -3.15905e-08 25 5.59656 25 12.5C 25 19.4034 19.4034 25 12.5 25C 5.59625 25 -3.15905e-08 19.4034 -3.15905e-08 12.5C -3.15905e-08 5.59656 5.59625 -3.15905e-08 12.5 -3.15905e-08ZM 20.0212 16.6184L 20.0172 8.57719L 15.2266 11.8744L 20.0212 16.6184ZM 14.4381 12.3172L 12.7331 13.4597C 12.6606 13.5069 12.5766 13.5313 12.4944 13.5313C 12.4113 13.5313 12.3288 13.5072 12.2563 13.46L 10.5109 12.2834L 5.57156 17.1703L 19.4366 17.1703L 14.4381 12.3172ZM 9.76844 11.7825L 4.98969 8.56063L 4.98969 16.5888L 9.76844 11.7825ZM 12.4941 12.5734L 19.4353 7.91062L 5.58312 7.91062L 12.4941 12.5734Z"/><path id="path-1" d="M 12.5 25C 5.59625 25 0 19.4037 0 12.5C 0 5.59625 5.59625 0 12.5 0C 19.4037 0 25 5.59625 25 12.5C 25 19.4037 19.4037 25 12.5 25ZM 15.1038 14.0625C 14.425 14.6088 13.8925 15.31 13.5538 16.1125C 11.4525 15.1875 9.8125 13.5475 8.8775 11.5175C 9.69 11.1075 10.39 10.575 10.9288 9.90625C 10.7913 8.39125 10.01 7.09375 8.8675 6.26C 7.34375 6.81125 6.2825 8.22625 6.24875 9.8925C 6.36375 14.6437 10.1063 18.4825 14.8038 18.7488C 16.575 18.7275 18.07 17.675 18.7375 16.1737C 17.905 14.99 16.6075 14.2088 15.1225 14.0638L 15.1038 14.0625Z"/><path id="path-2" fill-rule="evenodd" d="M 12.5 8.88178e-16C 9.18479 1.77636e-15 6.00537 1.31696 3.66117 3.66117C 1.31696 6.00537 2.66454e-15 9.18479 0 12.5C 3.55271e-15 15.8152 1.31696 18.9946 3.66117 21.3388C 6.00537 23.683 9.18479 25 12.5 25C 15.8152 25 18.9946 23.683 21.3388 21.3388C 23.683 18.9946 25 15.8152 25 12.5C 25 9.18479 23.683 6.00537 21.3388 3.66117C 18.9946 1.31696 15.8152 1.44329e-15 12.5 0L 12.5 8.88178e-16ZM 12.5 4.5C 16.9124 4.5 20.5 8.0877 20.5 12.5C 20.5 16.9124 16.9124 20.5 12.5 20.5C 8.08764 20.5 4.5 16.9124 4.5 12.5C 4.5 8.0877 8.08764 4.5 12.5 4.5ZM 12.5 5.5C 12.2687 5.5 12.0153 5.61689 11.7266 5.92969C 11.4378 6.24249 11.1438 6.74051 10.8945 7.37891C 10.6615 7.97581 10.4715 8.6998 10.3301 9.5L 14.6699 9.5C 14.5285 8.6998 14.3385 7.97581 14.1055 7.37891C 13.8562 6.74051 13.5622 6.24249 13.2734 5.92969C 12.9847 5.61689 12.7313 5.5 12.5 5.5ZM 10.5996 5.76562C 8.64111 6.31582 7.03707 7.6929 6.17969 9.5L 9.30664 9.5C 9.45913 8.5741 9.68224 7.73443 9.96289 7.01562C 10.1479 6.54192 10.3605 6.12572 10.5996 5.76562ZM 14.4004 5.76562C 14.6395 6.12572 14.8521 6.54192 15.0371 7.01562C 15.3178 7.73443 15.5409 8.5741 15.6934 9.5L 18.8203 9.5C 17.9629 7.6929 16.3589 6.31582 14.4004 5.76562ZM 5.79297 10.5C 5.60485 11.1338 5.5 11.8044 5.5 12.5C 5.5 13.1963 5.6045 13.8657 5.79297 14.5L 9.1875 14.5C 9.12027 13.8572 9.07227 13.1956 9.07227 12.5C 9.07227 11.8044 9.12027 11.1425 9.1875 10.5L 5.79297 10.5ZM 10.1953 10.5C 10.1238 11.1382 10.0723 11.8008 10.0723 12.5C 10.0723 13.1999 10.1237 13.8609 10.1953 14.5L 14.8047 14.5C 14.8763 13.8609 14.9277 13.1999 14.9277 12.5C 14.9277 11.8008 14.8762 11.1382 14.8047 10.5L 10.1953 10.5ZM 15.8125 10.5C 15.8797 11.1425 15.9277 11.8044 15.9277 12.5C 15.9277 13.1956 15.8797 13.8572 15.8125 14.5L 19.207 14.5C 19.3955 13.8657 19.5 13.1963 19.5 12.5C 19.5 11.8044 19.3952 11.1338 19.207 10.5L 15.8125 10.5ZM 6.18164 15.5C 7.03904 17.3054 8.64083 18.6822 10.5977 19.2324C 10.3591 18.8728 10.1475 18.459 9.96289 17.9863C 9.68224 17.2676 9.45913 16.4264 9.30664 15.5L 6.18164 15.5ZM 10.332 15.5C 10.4734 16.2999 10.6617 17.0267 10.8945 17.623C 11.1438 18.2615 11.4378 18.7595 11.7266 19.0723C 12.0153 19.3851 12.2687 19.5 12.5 19.5C 12.7313 19.5 12.9847 19.3851 13.2734 19.0723C 13.5622 18.7595 13.8562 18.2615 14.1055 17.623C 14.3383 17.0267 14.5266 16.2999 14.668 15.5L 10.332 15.5ZM 15.6934 15.5C 15.5409 16.4264 15.3178 17.2676 15.0371 17.9863C 14.8525 18.459 14.6409 18.8728 14.4023 19.2324C 16.3592 18.6822 17.961 17.3054 18.8184 15.5L 15.6934 15.5Z"/><style id="style-2">@import url(https://fonts.googleapis.com/css?family=Fjalla+One:400|Roboto:100,100italic,300,300italic,400,400italic,500,500italic,700,700italic,900,900italic);</style><path id="path-3" d="M 12.5 8.88178e-16C 9.18479 1.77636e-15 6.00537 1.31696 3.66117 3.66117C 1.31696 6.00537 2.66454e-15 9.18479 0 12.5C 3.55271e-15 15.8152 1.31696 18.9946 3.66117 21.3388C 6.00537 23.683 9.18479 25 12.5 25C 15.8152 25 18.9946 23.683 21.3388 21.3388C 23.683 18.9946 25 15.8152 25 12.5C 25 9.18479 23.683 6.00537 21.3388 3.66117C 18.9946 1.31696 15.8152 1.44329e-15 12.5 0L 12.5 8.88178e-16ZM 12.5 6C 15.2555 6 17.5 8.2445 17.5 11C 17.5 14.8348 13.8533 18.3537 12.8535 19.3535L 12.5 19.707L 12.1465 19.3535C 11.1454 18.3524 7.5 14.8248 7.5 11C 7.5 8.2445 9.7445 6 12.5 6ZM 12.5 7C 10.2849 7 8.5 8.7849 8.5 11C 8.5 13.9376 11.292 16.99 12.5 18.2285C 13.709 16.9904 16.5 13.9488 16.5 11C 16.5 8.7849 14.7151 7 12.5 7ZM 12.5 9C 13.5986 9 14.5 9.9013 14.5 11C 14.5 12.0986 13.5986 13 12.5 13C 11.4014 13 10.5 12.0986 10.5 11C 10.5 9.9013 11.4014 9 12.5 9ZM 12.5 10C 11.9418 10 11.5 10.4418 11.5 11C 11.5 11.5582 11.9418 12 12.5 12C 13.0582 12 13.5 11.5582 13.5 11C 13.5 10.4418 13.0582 10 12.5 10Z"/><path id="path-4" d="M 12.5 -3.15905e-08C 19.4034 -3.15905e-08 25 5.59656 25 12.5C 25 19.4034 19.4034 25 12.5 25C 5.59625 25 -3.15905e-08 19.4034 -3.15905e-08 12.5C -3.15905e-08 5.59656 5.59625 -3.15905e-08 12.5 -3.15905e-08ZM 20.0212 16.6184L 20.0172 8.57719L 15.2266 11.8744L 20.0212 16.6184ZM 14.4381 12.3172L 12.7331 13.4597C 12.6606 13.5069 12.5766 13.5313 12.4944 13.5313C 12.4113 13.5313 12.3288 13.5072 12.2563 13.46L 10.5109 12.2834L 5.57156 17.1703L 19.4366 17.1703L 14.4381 12.3172ZM 9.76844 11.7825L 4.98969 8.56063L 4.98969 16.5888L 9.76844 11.7825ZM 12.4941 12.5734L 19.4353 7.91062L 5.58312 7.91062L 12.4941 12.5734Z"/><path id="path-5" d="M 12.5 25C 5.59625 25 0 19.4037 0 12.5C 0 5.59625 5.59625 0 12.5 0C 19.4037 0 25 5.59625 25 12.5C 25 19.4037 19.4037 25 12.5 25ZM 15.1038 14.0625C 14.425 14.6088 13.8925 15.31 13.5538 16.1125C 11.4525 15.1875 9.8125 13.5475 8.8775 11.5175C 9.69 11.1075 10.39 10.575 10.9288 9.90625C 10.7913 8.39125 10.01 7.09375 8.8675 6.26C 7.34375 6.81125 6.2825 8.22625 6.24875 9.8925C 6.36375 14.6437 10.1063 18.4825 14.8038 18.7488C 16.575 18.7275 18.07 17.675 18.7375 16.1737C 17.905 14.99 16.6075 14.2088 15.1225 14.0638L 15.1038 14.0625Z"/></defs><rect id="ee-background" x="0" y="0" width="1400" height="980" style="fill: white; fill-opacity: 1; pointer-events: none;"/>








































<g transform="matrix(1, 0, 0, 1, -0.00003221232327632606, 0.000016730160496081226)"><rect id="rect-1" x="0" y="0" width="1400" height="980" style="fill: white; fill-opacity: 1; pointer-events: none;"/><path d="M 260.79998779296875 86.19999694824219" style="fill: rgb(23, 168, 247); fill-opacity: 1; stroke: rgb(0, 0, 0); stroke-opacity: 1; stroke-width: 0; paint-order: fill;"/></g><g transform="matrix(1, 0, 0, 1, -0.00003221232327632606, 0.000016730160496081226)"><rect id="rect-2" x="0" y="0" width="1400" height="980" style="fill: white; fill-opacity: 1; pointer-events: none;"/><path d="M 260.79998779296875 86.19999694824219" style="fill: rgb(23, 168, 247); fill-opacity: 1; stroke: rgb(0, 0, 0); stroke-opacity: 1; stroke-width: 0; paint-order: fill;"/><g transform="matrix(39.20000076293945, 0, 0, 39.20000076293945, 217.32920315325032, -0.000004707710616003169)"><title>noun_376853_cc</title><desc>Created using Figma</desc><g id="Canvas" transform="translate(-4909 -2705)">
<g id="noun_376853_cc">
<g id="Group">
<g id="Vector">
<use transform="translate(4909 2705)" fill="#219653" style="fill: rgb(195, 39, 47);" xlink:href="#path-2"/>
</g>
</g>
</g>
</g></g></g></svg>