<?xml version="1.0" encoding="utf-8"?>
<svg id="master-artboard" viewBox="0 0 1400 980" version="1.1" xmlns="http://www.w3.org/2000/svg" x="0px" y="0px" style="enable-background:new 0 0 1400 980;" width="1400px" height="980px" xmlns:xlink="http://www.w3.org/1999/xlink"><rect id="ee-background" x="0" y="0" width="1400" height="980" style="fill: white; fill-opacity: 1; pointer-events: none;"/><defs><style id="ee-google-fonts">@import url(https://fonts.googleapis.com/css?family=Roboto:100,100italic,300,300italic,400,400italic,500,500italic,700,700italic,900,900italic);</style><path id="path0_fill" d="M 12.5 -3.15905e-08C 19.4034 -3.15905e-08 25 5.59656 25 12.5C 25 19.4034 19.4034 25 12.5 25C 5.59625 25 -3.15905e-08 19.4034 -3.15905e-08 12.5C -3.15905e-08 5.59656 5.59625 -3.15905e-08 12.5 -3.15905e-08ZM 20.0212 16.6184L 20.0172 8.57719L 15.2266 11.8744L 20.0212 16.6184ZM 14.4381 12.3172L 12.7331 13.4597C 12.6606 13.5069 12.5766 13.5313 12.4944 13.5313C 12.4113 13.5313 12.3288 13.5072 12.2563 13.46L 10.5109 12.2834L 5.57156 17.1703L 19.4366 17.1703L 14.4381 12.3172ZM 9.76844 11.7825L 4.98969 8.56063L 4.98969 16.5888L 9.76844 11.7825ZM 12.4941 12.5734L 19.4353 7.91062L 5.58312 7.91062L 12.4941 12.5734Z"/><path id="path-1" d="M 12.5 25C 5.59625 25 0 19.4037 0 12.5C 0 5.59625 5.59625 0 12.5 0C 19.4037 0 25 5.59625 25 12.5C 25 19.4037 19.4037 25 12.5 25ZM 15.1038 14.0625C 14.425 14.6088 13.8925 15.31 13.5538 16.1125C 11.4525 15.1875 9.8125 13.5475 8.8775 11.5175C 9.69 11.1075 10.39 10.575 10.9288 9.90625C 10.7913 8.39125 10.01 7.09375 8.8675 6.26C 7.34375 6.81125 6.2825 8.22625 6.24875 9.8925C 6.36375 14.6437 10.1063 18.4825 14.8038 18.7488C 16.575 18.7275 18.07 17.675 18.7375 16.1737C 17.905 14.99 16.6075 14.2088 15.1225 14.0638L 15.1038 14.0625Z"/></defs>























































































































<path d="M 260.79998779296875 86.19999694824219" style="fill: rgb(23, 168, 247); fill-opacity: 1; stroke: rgb(0, 0, 0); stroke-opacity: 1; stroke-width: 0; paint-order: fill;"/><g transform="matrix(39.20000076293945, 0, 0, 39.20000076293945, 253.97560135141316, 2.4430878035624346)"><title>noun_555068_cc</title><desc>Created using Figma</desc><g id="g-1" transform="translate(-4909 -2651)">
<g id="noun_555068_cc">
<g id="g-2">
<use transform="translate(4909 2651)" fill="#219653" style="fill: rgb(195, 39, 47);" xlink:href="#path-1"/>
</g>
</g>
</g></g></svg>